<svg width="298" height="70" viewBox="0 0 298 70" xmlns="http://www.w3.org/2000/svg" role="img" aria-labelledby="title">
  <title id="title">Universidad Nacional Costa Rica</title>
  <rect width="298" height="70" fill="#ffffff"/>
  <path d="M6 4h18v3h-7v41c0 7 7 11 24 11 19 0 28-5 28-14V7h-8V4h24v3h-8v39c0 12-13 20-38 20C15 66 6 58 6 49V7H0V4h6Z" fill="#D11F2A"/>
  <path d="M86 4h21l55 48V7h-10V4h27v3h-9v59h-8L94 10v51h10v3H77v-3h9V7h-9V4h9Z" fill="#D11F2A"/>
  <path d="M166 63h9l30-59h9l33 59h8v3h-38v-3h11l-9-17h-33l-8 17h12v3h-24v-3Zm22-21h29L202 15 188 42Z" fill="#D11F2A"/>
  <text x="160" y="18" fill="#D11F2A" font-family="Georgia, 'Times New Roman', serif" font-size="22" letter-spacing="0">UNIVERSIDAD</text>
  <text x="160" y="41" fill="#D11F2A" font-family="Georgia, 'Times New Roman', serif" font-size="24" letter-spacing="1">NACIONAL</text>
  <text x="179" y="61" fill="#D11F2A" font-family="Georgia, 'Times New Roman', serif" font-size="13" letter-spacing="7">COSTA RICA</text>
  <line x1="5" y1="64" x2="295" y2="64" stroke="#A7A9AC" stroke-width="3"/>
</svg>
